<svg xmlns="http://www.w3.org/2000/svg" viewBox="0 0 64 64" role="img" aria-label="What They Mean">
  <defs>
    <linearGradient id="tile" x1="0" y1="0" x2="64" y2="64" gradientUnits="userSpaceOnUse">
      <stop offset="0" stop-color="#3b82f6"/>
      <stop offset="1" stop-color="#1e40af"/>
    </linearGradient>
  </defs>

  <!-- rounded tile in the site's accent blue -->
  <rect width="64" height="64" rx="15" fill="url(#tile)"/>

  <!-- speech bubble: explaining a concept -->
  <path fill="#ffffff" d="M16 14h32a6 6 0 0 1 6 6v17a6 6 0 0 1-6 6H30l-11 9a1.6 1.6 0 0 1-2.6-1.2V43h-0.4a6 6 0 0 1-6-6V20a6 6 0 0 1 6-6z"/>

  <!-- the 'aha' spark: the moment it clicks -->
  <path fill="#2563eb" d="M32 19.5c1 5.6 2.9 7.5 8.5 8.5-5.6 1-7.5 2.9-8.5 8.5-1-5.6-2.9-7.5-8.5-8.5 5.6-1 7.5-2.9 8.5-8.5z"/>
</svg>
